<svg xmlns="http://www.w3.org/2000/svg" width="1920" height="1080"><path d="M-420,-492L234,-451L914,-470Z" fill="#ffd2c0" stroke="#ffd2c0" stroke-width="1.51"/><path d="M-420,-492L914,-470L1954,-504Z" fill="#ffb79f" stroke="#ffb79f" stroke-width="1.51"/><path d="M914,-470L1068,-445L1954,-504Z" fill="#ff9e88" stroke="#ff9e88" stroke-width="1.51"/><path d="M2268,188L2116,542L2413,563Z" fill="#c44735" stroke="#c44735" stroke-width="1.51"/><path d="M2335,851L2399,1049L2413,563Z" fill="#b3201d" stroke="#b3201d" stroke-width="1.51"/><path d="M1969,9L2138,120L2419,-3Z" fill="#cf6953" stroke="#cf6953" stroke-width="1.51"/><path d="M2268,188L2413,563L2419,-3Z" fill="#bc5340" stroke="#bc5340" stroke-width="1.51"/><path d="M1969,9L2419,-3L2453,-296Z" fill="#c8705d" stroke="#c8705d" stroke-width="1.51"/><path d="M1954,-504L1969,9L2453,-296Z" fill="#d9806d" stroke="#d9806d" stroke-width="1.51"/><path d="M2419,-3L2413,563L2453,-296Z" fill="#b95e4b" stroke="#b95e4b" stroke-width="1.51"/><path d="M1962,1256L2309,1421L2399,1049Z" fill="#a40f15" stroke="#a40f15" stroke-width="1.51"/><path d="M2090,942L1962,1256L2399,1049Z" fill="#b51319" stroke="#b51319" stroke-width="1.51"/><path d="M2116,542L2335,851L2413,563Z" fill="#bf3327" stroke="#bf3327" stroke-width="1.51"/><path d="M2138,120L2268,188L2419,-3Z" fill="#c6614d" stroke="#c6614d" stroke-width="1.51"/><path d="M783,1480L585,1515L1497,1583Z" fill="#ba3c2c" stroke="#ba3c2c" stroke-width="1.51"/><path d="M2335,851L2090,942L2399,1049Z" fill="#b41a1b" stroke="#b41a1b" stroke-width="1.51"/><path d="M2116,542L2090,942L2335,851Z" fill="#c52922" stroke="#c52922" stroke-width="1.51"/><path d="M1954,-504L1784,-278L1969,9Z" fill="#e4846f" stroke="#e4846f" stroke-width="1.51"/><path d="M2138,120L2116,542L2268,188Z" fill="#cd5640" stroke="#cd5640" stroke-width="1.51"/><path d="M1962,1256L1939,1581L2309,1421Z" fill="#a00d14" stroke="#a00d14" stroke-width="1.51"/><path d="M-68,1393L-442,1404L585,1515Z" fill="#cc725f" stroke="#cc725f" stroke-width="1.51"/><path d="M1025,1468L783,1480L1497,1583Z" fill="#ba3427" stroke="#ba3427" stroke-width="1.51"/><path d="M1068,-445L1537,-325L1954,-504Z" fill="#fa9580" stroke="#fa9580" stroke-width="1.51"/><path d="M1796,562L1696,760L2090,942Z" fill="#d83026" stroke="#d83026" stroke-width="1.51"/><path d="M1844,1085L1962,1256L2090,942Z" fill="#be151a" stroke="#be151a" stroke-width="1.51"/><path d="M1727,246L1796,562L2116,542Z" fill="#dd4d38" stroke="#dd4d38" stroke-width="1.51"/><path d="M1796,562L2090,942L2116,542Z" fill="#d33628" stroke="#d33628" stroke-width="1.51"/><path d="M1727,246L2116,542L2138,120Z" fill="#d85741" stroke="#d85741" stroke-width="1.51"/><path d="M1969,9L1727,246L2138,120Z" fill="#dc6750" stroke="#dc6750" stroke-width="1.51"/><path d="M1780,1354L1939,1581L1962,1256Z" fill="#ab1017" stroke="#ab1017" stroke-width="1.51"/><path d="M1696,760L1844,1085L2090,942Z" fill="#ce221f" stroke="#ce221f" stroke-width="1.51"/><path d="M1784,-278L1655,-65L1969,9Z" fill="#e77c64" stroke="#e77c64" stroke-width="1.51"/><path d="M1655,-65L1727,246L1969,9Z" fill="#e56f56" stroke="#e56f56" stroke-width="1.51"/><path d="M1844,1085L1780,1354L1962,1256Z" fill="#ba141a" stroke="#ba141a" stroke-width="1.51"/><path d="M1537,-325L1784,-278L1954,-504Z" fill="#ee8b77" stroke="#ee8b77" stroke-width="1.51"/><path d="M1780,1354L1497,1583L1939,1581Z" fill="#a60e17" stroke="#a60e17" stroke-width="1.51"/><path d="M1696,760L1504,780L1844,1085Z" fill="#db2a23" stroke="#db2a23" stroke-width="1.51"/><path d="M1333,1194L1780,1354L1844,1085Z" fill="#c61b1c" stroke="#c61b1c" stroke-width="1.51"/><path d="M1504,780L1333,1194L1844,1085Z" fill="#d72622" stroke="#d72622" stroke-width="1.51"/><path d="M1484,195L1361,609L1727,246Z" fill="#ef5f45" stroke="#ef5f45" stroke-width="1.51"/><path d="M1655,-65L1484,195L1727,246Z" fill="#ec6e54" stroke="#ec6e54" stroke-width="1.51"/><path d="M1537,-325L1655,-65L1784,-278Z" fill="#f08771" stroke="#f08771" stroke-width="1.51"/><path d="M1504,780L1696,760L1796,562Z" fill="#e33a2c" stroke="#e33a2c" stroke-width="1.51"/><path d="M1361,609L1504,780L1796,562Z" fill="#e94431" stroke="#e94431" stroke-width="1.51"/><path d="M1727,246L1361,609L1796,562Z" fill="#e9513a" stroke="#e9513a" stroke-width="1.51"/><path d="M1333,1194L1497,1583L1780,1354Z" fill="#be1d1c" stroke="#be1d1c" stroke-width="1.51"/><path d="M1537,-325L1470,-103L1655,-65Z" fill="#f4876e" stroke="#f4876e" stroke-width="1.51"/><path d="M1470,-103L1484,195L1655,-65Z" fill="#f17b60" stroke="#f17b60" stroke-width="1.51"/><path d="M1333,1194L1159,1247L1497,1583Z" fill="#cb2821" stroke="#cb2821" stroke-width="1.51"/><path d="M1131,906L1333,1194L1504,780Z" fill="#e53429" stroke="#e53429" stroke-width="1.51"/><path d="M1132,-187L1470,-103L1537,-325Z" fill="#fd8f75" stroke="#fd8f75" stroke-width="1.51"/><path d="M1068,-445L1132,-187L1537,-325Z" fill="#ff9b83" stroke="#ff9b83" stroke-width="1.51"/><path d="M1132,-187L1036,190L1470,-103Z" fill="#fc8a6d" stroke="#fc8a6d" stroke-width="1.51"/><path d="M1470,-103L1036,190L1484,195Z" fill="#fa7b5d" stroke="#fa7b5d" stroke-width="1.51"/><path d="M1036,190L1361,609L1484,195Z" fill="#f8694c" stroke="#f8694c" stroke-width="1.51"/><path d="M1159,1247L1025,1468L1497,1583Z" fill="#c12e23" stroke="#c12e23" stroke-width="1.51"/><path d="M1361,609L1131,906L1504,780Z" fill="#f1412f" stroke="#f1412f" stroke-width="1.51"/><path d="M1131,906L1159,1247L1333,1194Z" fill="#dd3629" stroke="#dd3629" stroke-width="1.51"/><path d="M1004,634L1131,906L1361,609Z" fill="#f45038" stroke="#f45038" stroke-width="1.51"/><path d="M1036,190L1004,634L1361,609Z" fill="#f96647" stroke="#f96647" stroke-width="1.51"/><path d="M736,253L1004,634L1036,190Z" fill="#fc7a59" stroke="#fc7a59" stroke-width="1.51"/><path d="M773,-101L1036,190L1132,-187Z" fill="#fe9576" stroke="#fe9576" stroke-width="1.51"/><path d="M1131,906L759,1199L1159,1247Z" fill="#e04331" stroke="#e04331" stroke-width="1.51"/><path d="M759,1199L1025,1468L1159,1247Z" fill="#d3422e" stroke="#d3422e" stroke-width="1.51"/><path d="M736,253L743,588L1004,634Z" fill="#fc7554" stroke="#fc7554" stroke-width="1.51"/><path d="M1004,634L756,779L1131,906Z" fill="#f6583d" stroke="#f6583d" stroke-width="1.51"/><path d="M756,779L759,1199L1131,906Z" fill="#ec523b" stroke="#ec523b" stroke-width="1.51"/><path d="M1068,-445L914,-470L1132,-187Z" fill="#ffa78e" stroke="#ffa78e" stroke-width="1.51"/><path d="M914,-470L773,-101L1132,-187Z" fill="#ffa68b" stroke="#ffa68b" stroke-width="1.51"/><path d="M759,1199L783,1480L1025,1468Z" fill="#cd4733" stroke="#cd4733" stroke-width="1.51"/><path d="M773,-101L736,253L1036,190Z" fill="#fe9171" stroke="#fe9171" stroke-width="1.51"/><path d="M743,588L756,779L1004,634Z" fill="#f96849" stroke="#f96849" stroke-width="1.51"/><path d="M220,1381L-68,1393L585,1515Z" fill="#ca6852" stroke="#ca6852" stroke-width="1.51"/><path d="M234,-451L429,-289L914,-470Z" fill="#ffc1ab" stroke="#ffc1ab" stroke-width="1.51"/><path d="M485,-195L773,-101L914,-470Z" fill="#ffb197" stroke="#ffb197" stroke-width="1.51"/><path d="M429,-289L485,-195L914,-470Z" fill="#ffb9a1" stroke="#ffb9a1" stroke-width="1.51"/><path d="M-420,-492L-187,-418L234,-451Z" fill="#ffe3d7" stroke="#ffe3d7" stroke-width="1.51"/><path d="M736,253L542,566L743,588Z" fill="#fc7f5d" stroke="#fc7f5d" stroke-width="1.51"/><path d="M743,588L542,566L756,779Z" fill="#fa7252" stroke="#fa7252" stroke-width="1.51"/><path d="M381,1236L585,1515L759,1199Z" fill="#d45942" stroke="#d45942" stroke-width="1.51"/><path d="M756,779L475,788L759,1199Z" fill="#ef6147" stroke="#ef6147" stroke-width="1.51"/><path d="M475,788L381,1236L759,1199Z" fill="#e66148" stroke="#e66148" stroke-width="1.51"/><path d="M488,192L736,253L773,-101Z" fill="#fd9a7a" stroke="#fd9a7a" stroke-width="1.51"/><path d="M485,-195L488,192L773,-101Z" fill="#fda88c" stroke="#fda88c" stroke-width="1.51"/><path d="M759,1199L585,1515L783,1480Z" fill="#cc4f3a" stroke="#cc4f3a" stroke-width="1.51"/><path d="M488,192L542,566L736,253Z" fill="#fc8c6c" stroke="#fc8c6c" stroke-width="1.51"/><path d="M542,566L475,788L756,779Z" fill="#f97153" stroke="#f97153" stroke-width="1.51"/><path d="M485,-195L128,-49L488,192Z" fill="#fdb397" stroke="#fdb397" stroke-width="1.51"/><path d="M488,192L288,599L542,566Z" fill="#fd8c6c" stroke="#fd8c6c" stroke-width="1.51"/><path d="M381,1236L220,1381L585,1515Z" fill="#d0614b" stroke="#d0614b" stroke-width="1.51"/><path d="M236,735L381,1236L475,788Z" fill="#f27257" stroke="#f27257" stroke-width="1.51"/><path d="M288,599L475,788L542,566Z" fill="#fb7f60" stroke="#fb7f60" stroke-width="1.51"/><path d="M236,735L131,1238L381,1236Z" fill="#e97259" stroke="#e97259" stroke-width="1.51"/><path d="M288,599L236,735L475,788Z" fill="#fb8162" stroke="#fb8162" stroke-width="1.51"/><path d="M429,-289L128,-49L485,-195Z" fill="#febfa6" stroke="#febfa6" stroke-width="1.51"/><path d="M90,195L288,599L488,192Z" fill="#fd9d7e" stroke="#fd9d7e" stroke-width="1.51"/><path d="M128,-49L90,195L488,192Z" fill="#fdb094" stroke="#fdb094" stroke-width="1.51"/><path d="M234,-451L128,-49L429,-289Z" fill="#ffc9b3" stroke="#ffc9b3" stroke-width="1.51"/><path d="M131,1238L220,1381L381,1236Z" fill="#d96d55" stroke="#d96d55" stroke-width="1.51"/><path d="M-55,-192L128,-49L234,-451Z" fill="#feceba" stroke="#feceba" stroke-width="1.51"/><path d="M-48,1216L131,1238L236,735Z" fill="#eb7a62" stroke="#eb7a62" stroke-width="1.51"/><path d="M-216,965L-48,1216L236,735Z" fill="#f3846b" stroke="#f3846b" stroke-width="1.51"/><path d="M-150,502L236,735L288,599Z" fill="#fe9374" stroke="#fe9374" stroke-width="1.51"/><path d="M90,195L-150,502L288,599Z" fill="#ffa184" stroke="#ffa184" stroke-width="1.51"/><path d="M-187,-418L-55,-192L234,-451Z" fill="#fed9ca" stroke="#fed9ca" stroke-width="1.51"/><path d="M-150,502L-216,965L236,735Z" fill="#ff9277" stroke="#ff9277" stroke-width="1.51"/><path d="M131,1238L-68,1393L220,1381Z" fill="#d7735c" stroke="#d7735c" stroke-width="1.51"/><path d="M-224,233L-150,502L90,195Z" fill="#ffb197" stroke="#ffb197" stroke-width="1.51"/><path d="M-224,233L90,195L128,-49Z" fill="#febba1" stroke="#febba1" stroke-width="1.51"/><path d="M-55,-192L-224,233L128,-49Z" fill="#fdc6b0" stroke="#fdc6b0" stroke-width="1.51"/><path d="M-48,1216L-68,1393L131,1238Z" fill="#dc7963" stroke="#dc7963" stroke-width="1.51"/><path d="M-372,738L-216,965L-150,502Z" fill="#ff9b82" stroke="#ff9b82" stroke-width="1.51"/><path d="M-426,-186L-377,193L-224,233Z" fill="#ffccb7" stroke="#ffccb7" stroke-width="1.51"/><path d="M-426,-186L-224,233L-55,-192Z" fill="#fed1be" stroke="#fed1be" stroke-width="1.51"/><path d="M-442,1404L-68,1393L-48,1216Z" fill="#da806d" stroke="#da806d" stroke-width="1.51"/><path d="M-216,965L-442,1404L-48,1216Z" fill="#e68672" stroke="#e68672" stroke-width="1.51"/><path d="M-529,1107L-442,1404L-216,965Z" fill="#ea8b78" stroke="#ea8b78" stroke-width="1.51"/><path d="M-187,-418L-426,-186L-55,-192Z" fill="#fee0d2" stroke="#fee0d2" stroke-width="1.51"/><path d="M-224,233L-330,456L-150,502Z" fill="#ffb298" stroke="#ffb298" stroke-width="1.51"/><path d="M-330,456L-372,738L-150,502Z" fill="#ffa78d" stroke="#ffa78d" stroke-width="1.51"/><path d="M-420,-492L-426,-186L-187,-418Z" fill="#ffe8dc" stroke="#ffe8dc" stroke-width="1.51"/><path d="M-377,193L-330,456L-224,233Z" fill="#ffbaa3" stroke="#ffbaa3" stroke-width="1.51"/><path d="M-372,738L-529,1107L-216,965Z" fill="#f9947e" stroke="#f9947e" stroke-width="1.51"/><path d="M-377,193L-372,738L-330,456Z" fill="#ffb098" stroke="#ffb098" stroke-width="1.51"/><path d="M-377,193L-529,1107L-372,738Z" fill="#ffa48c" stroke="#ffa48c" stroke-width="1.51"/><path d="M-426,-186L-529,1107L-377,193Z" fill="#ffb9a2" stroke="#ffb9a2" stroke-width="1.51"/><path d="M-529,1107L-426,-186L-420,-492Z" fill="#ffcab6" stroke="#ffcab6" stroke-width="1.51"/></svg>