<svg xmlns="http://www.w3.org/2000/svg" width="1920" height="1080"><path d="M-196,-223L145,-207L420,-232Z" fill="#ffebd0" stroke="#ffebd0" stroke-width="1.51"/><path d="M235,1329L-120,1340L762,1323Z" fill="#c77650" stroke="#c77650" stroke-width="1.51"/><path d="M-196,-223L420,-232L1285,-258Z" fill="#ffdebb" stroke="#ffdebb" stroke-width="1.51"/><path d="M626,-202L902,-195L1285,-258Z" fill="#ffc29d" stroke="#ffc29d" stroke-width="1.51"/><path d="M420,-232L626,-202L1285,-258Z" fill="#ffceaa" stroke="#ffceaa" stroke-width="1.51"/><path d="M1071,1318L762,1323L1587,1331Z" fill="#be4328" stroke="#be4328" stroke-width="1.51"/><path d="M1217,1288L1071,1318L1587,1331Z" fill="#bc3723" stroke="#bc3723" stroke-width="1.51"/><path d="M1285,-258L1629,-179L1879,-210Z" fill="#f49779" stroke="#f49779" stroke-width="1.51"/><path d="M1806,1268L1587,1331L1948,1284Z" fill="#a60805" stroke="#a60805" stroke-width="1.51"/><path d="M1971,-37L1972,122L2069,136Z" fill="#d27a52" stroke="#d27a52" stroke-width="1.51"/><path d="M1940,668L2035,686L2096,487Z" fill="#c74a2a" stroke="#c74a2a" stroke-width="1.51"/><path d="M2035,686L2060,892L2096,487Z" fill="#c14127" stroke="#c14127" stroke-width="1.51"/><path d="M2069,136L2033,274L2096,487Z" fill="#c96b42" stroke="#c96b42" stroke-width="1.51"/><path d="M2033,274L2040,365L2096,487Z" fill="#c9653c" stroke="#c9653c" stroke-width="1.51"/><path d="M2050,1116L2037,1264L2098,1029Z" fill="#a30303" stroke="#a30303" stroke-width="1.51"/><path d="M2096,487L2060,892L2098,1029Z" fill="#ba321f" stroke="#ba321f" stroke-width="1.51"/><path d="M2073,-193L1971,-37L2127,-91Z" fill="#cf8062" stroke="#cf8062" stroke-width="1.51"/><path d="M1971,-37L2069,136L2127,-91Z" fill="#ce7c58" stroke="#ce7c58" stroke-width="1.51"/><path d="M2069,136L2096,487L2127,-91Z" fill="#c87249" stroke="#c87249" stroke-width="1.51"/><path d="M2096,487L2098,1029L2127,-91Z" fill="#c35732" stroke="#c35732" stroke-width="1.51"/><path d="M1285,-258L1497,-181L1629,-179Z" fill="#f89e81" stroke="#f89e81" stroke-width="1.51"/><path d="M2035,686L1900,893L2060,892Z" fill="#c0311d" stroke="#c0311d" stroke-width="1.51"/><path d="M1964,432L1885,514L2096,487Z" fill="#ce5a33" stroke="#ce5a33" stroke-width="1.51"/><path d="M1885,514L1940,668L2096,487Z" fill="#ce512c" stroke="#ce512c" stroke-width="1.51"/><path d="M2040,365L1964,432L2096,487Z" fill="#cb5f37" stroke="#cb5f37" stroke-width="1.51"/><path d="M2060,892L1967,1026L2098,1029Z" fill="#b2180e" stroke="#b2180e" stroke-width="1.51"/><path d="M1967,1026L2050,1116L2098,1029Z" fill="#ac0f08" stroke="#ac0f08" stroke-width="1.51"/><path d="M1972,122L1908,202L2033,274Z" fill="#d37448" stroke="#d37448" stroke-width="1.51"/><path d="M1940,668L1900,893L2035,686Z" fill="#c93c25" stroke="#c93c25" stroke-width="1.51"/><path d="M1932,1184L2037,1264L2050,1116Z" fill="#a20001" stroke="#a20001" stroke-width="1.51"/><path d="M1972,122L2033,274L2069,136Z" fill="#ce7449" stroke="#ce7449" stroke-width="1.51"/><path d="M1879,-210L1971,-37L2073,-193Z" fill="#d98566" stroke="#d98566" stroke-width="1.51"/><path d="M1900,893L1967,1026L2060,892Z" fill="#bc1f12" stroke="#bc1f12" stroke-width="1.51"/><path d="M1967,1026L1932,1184L2050,1116Z" fill="#ac0804" stroke="#ac0804" stroke-width="1.51"/><path d="M1908,202L1964,432L2033,274Z" fill="#d26e43" stroke="#d26e43" stroke-width="1.51"/><path d="M1932,1184L1948,1284L2037,1264Z" fill="#9e0001" stroke="#9e0001" stroke-width="1.51"/><path d="M2033,274L1964,432L2040,365Z" fill="#cd683e" stroke="#cd683e" stroke-width="1.51"/><path d="M1908,202L1832,411L1964,432Z" fill="#d86c3f" stroke="#d86c3f" stroke-width="1.51"/><path d="M626,-202L727,-192L902,-195Z" fill="#ffcfa9" stroke="#ffcfa9" stroke-width="1.51"/><path d="M1629,-179L1831,-184L1879,-210Z" fill="#e98d6e" stroke="#e98d6e" stroke-width="1.51"/><path d="M1831,-184L1828,-46L1879,-210Z" fill="#e58967" stroke="#e58967" stroke-width="1.51"/><path d="M1816,866L1900,893L1940,668Z" fill="#cb351f" stroke="#cb351f" stroke-width="1.51"/><path d="M1816,658L1816,866L1940,668Z" fill="#d24026" stroke="#d24026" stroke-width="1.51"/><path d="M1900,893L1762,972L1967,1026Z" fill="#c21c0f" stroke="#c21c0f" stroke-width="1.51"/><path d="M1831,1130L1932,1184L1967,1026Z" fill="#b20803" stroke="#b20803" stroke-width="1.51"/><path d="M1879,-210L1828,-46L1971,-37Z" fill="#df8562" stroke="#df8562" stroke-width="1.51"/><path d="M1828,-46L1835,68L1971,-37Z" fill="#e0825a" stroke="#e0825a" stroke-width="1.51"/><path d="M1971,-37L1835,68L1972,122Z" fill="#da7d55" stroke="#da7d55" stroke-width="1.51"/><path d="M1835,68L1908,202L1972,122Z" fill="#da7b4d" stroke="#da7b4d" stroke-width="1.51"/><path d="M1752,259L1832,411L1908,202Z" fill="#de7345" stroke="#de7345" stroke-width="1.51"/><path d="M1885,514L1816,658L1940,668Z" fill="#d44d2a" stroke="#d44d2a" stroke-width="1.51"/><path d="M1762,972L1831,1130L1967,1026Z" fill="#bd1409" stroke="#bd1409" stroke-width="1.51"/><path d="M1832,411L1885,514L1964,432Z" fill="#d76035" stroke="#d76035" stroke-width="1.51"/><path d="M1932,1184L1806,1268L1948,1284Z" fill="#a50001" stroke="#a50001" stroke-width="1.51"/><path d="M1775,582L1816,658L1885,514Z" fill="#d9522d" stroke="#d9522d" stroke-width="1.51"/><path d="M1831,1130L1806,1268L1932,1184Z" fill="#ae0001" stroke="#ae0001" stroke-width="1.51"/><path d="M1816,866L1762,972L1900,893Z" fill="#ca2816" stroke="#ca2816" stroke-width="1.51"/><path d="M1835,68L1752,259L1908,202Z" fill="#df7a4c" stroke="#df7a4c" stroke-width="1.51"/><path d="M1832,411L1775,582L1885,514Z" fill="#db5c32" stroke="#db5c32" stroke-width="1.51"/><path d="M1628,659L1650,812L1816,658Z" fill="#dc4a2e" stroke="#dc4a2e" stroke-width="1.51"/><path d="M1816,658L1650,812L1816,866Z" fill="#d53f27" stroke="#d53f27" stroke-width="1.51"/><path d="M1629,-179L1629,-41L1828,-46Z" fill="#ec8e6a" stroke="#ec8e6a" stroke-width="1.51"/><path d="M1629,-179L1828,-46L1831,-184Z" fill="#e98c6b" stroke="#e98c6b" stroke-width="1.51"/><path d="M1762,972L1683,972L1831,1130Z" fill="#c41d10" stroke="#c41d10" stroke-width="1.51"/><path d="M1683,972L1636,1181L1831,1130Z" fill="#c1190c" stroke="#c1190c" stroke-width="1.51"/><path d="M1636,1181L1806,1268L1831,1130Z" fill="#b40c05" stroke="#b40c05" stroke-width="1.51"/><path d="M1601,366L1775,582L1832,411Z" fill="#e2663c" stroke="#e2663c" stroke-width="1.51"/><path d="M1752,259L1601,366L1832,411Z" fill="#e47347" stroke="#e47347" stroke-width="1.51"/><path d="M1636,116L1752,259L1835,68Z" fill="#e58052" stroke="#e58052" stroke-width="1.51"/><path d="M1828,-46L1629,-41L1835,68Z" fill="#e6875f" stroke="#e6875f" stroke-width="1.51"/><path d="M1629,-41L1636,116L1835,68Z" fill="#e9875d" stroke="#e9875d" stroke-width="1.51"/><path d="M1636,116L1663,247L1752,259Z" fill="#e87f51" stroke="#e87f51" stroke-width="1.51"/><path d="M1601,366L1582,577L1775,582Z" fill="#e6633a" stroke="#e6633a" stroke-width="1.51"/><path d="M1775,582L1628,659L1816,658Z" fill="#dc512f" stroke="#dc512f" stroke-width="1.51"/><path d="M1683,972L1762,972L1816,866Z" fill="#cc2717" stroke="#cc2717" stroke-width="1.51"/><path d="M1650,812L1683,972L1816,866Z" fill="#d2321e" stroke="#d2321e" stroke-width="1.51"/><path d="M1636,1181L1587,1331L1806,1268Z" fill="#b1130a" stroke="#b1130a" stroke-width="1.51"/><path d="M1663,247L1601,366L1752,259Z" fill="#e87a4d" stroke="#e87a4d" stroke-width="1.51"/><path d="M1582,577L1628,659L1775,582Z" fill="#e25834" stroke="#e25834" stroke-width="1.51"/><path d="M1292,1264L1217,1288L1587,1331Z" fill="#bb311e" stroke="#bb311e" stroke-width="1.51"/><path d="M1506,434L1582,577L1601,366Z" fill="#ec6d44" stroke="#ec6d44" stroke-width="1.51"/><path d="M1483,1098L1636,1181L1683,972Z" fill="#c92213" stroke="#c92213" stroke-width="1.51"/><path d="M1465,977L1483,1098L1683,972Z" fill="#d22d1c" stroke="#d22d1c" stroke-width="1.51"/><path d="M1650,812L1465,977L1683,972Z" fill="#d73320" stroke="#d73320" stroke-width="1.51"/><path d="M1629,-41L1495,47L1636,116Z" fill="#f08c63" stroke="#f08c63" stroke-width="1.51"/><path d="M1510,1269L1587,1331L1636,1181Z" fill="#b71a0f" stroke="#b71a0f" stroke-width="1.51"/><path d="M1628,659L1464,805L1650,812Z" fill="#e24a32" stroke="#e24a32" stroke-width="1.51"/><path d="M1464,805L1465,977L1650,812Z" fill="#de402a" stroke="#de402a" stroke-width="1.51"/><path d="M1636,116L1526,279L1663,247Z" fill="#ec8254" stroke="#ec8254" stroke-width="1.51"/><path d="M1526,279L1601,366L1663,247Z" fill="#ec7d50" stroke="#ec7d50" stroke-width="1.51"/><path d="M1466,657L1464,805L1628,659Z" fill="#e65538" stroke="#e65538" stroke-width="1.51"/><path d="M1497,-181L1491,-50L1629,-179Z" fill="#f59776" stroke="#f59776" stroke-width="1.51"/><path d="M1629,-179L1491,-50L1629,-41Z" fill="#f29370" stroke="#f29370" stroke-width="1.51"/><path d="M1506,434L1488,531L1582,577Z" fill="#ec6940" stroke="#ec6940" stroke-width="1.51"/><path d="M1510,1269L1292,1264L1587,1331Z" fill="#b82717" stroke="#b82717" stroke-width="1.51"/><path d="M1491,-50L1495,47L1629,-41Z" fill="#f3926b" stroke="#f3926b" stroke-width="1.51"/><path d="M1495,47L1526,279L1636,116Z" fill="#f0895b" stroke="#f0895b" stroke-width="1.51"/><path d="M1483,1098L1510,1269L1636,1181Z" fill="#c22011" stroke="#c22011" stroke-width="1.51"/><path d="M1582,577L1466,657L1628,659Z" fill="#e75a38" stroke="#e75a38" stroke-width="1.51"/><path d="M1526,279L1506,434L1601,366Z" fill="#ee7a4f" stroke="#ee7a4f" stroke-width="1.51"/><path d="M1495,47L1350,129L1526,279Z" fill="#f38f62" stroke="#f38f62" stroke-width="1.51"/><path d="M1488,531L1466,657L1582,577Z" fill="#eb623d" stroke="#eb623d" stroke-width="1.51"/><path d="M1483,1098L1296,1185L1510,1269Z" fill="#c72d19" stroke="#c72d19" stroke-width="1.51"/><path d="M1350,129L1339,224L1526,279Z" fill="#f48f62" stroke="#f48f62" stroke-width="1.51"/><path d="M1310,384L1506,434L1526,279Z" fill="#f18154" stroke="#f18154" stroke-width="1.51"/><path d="M1339,224L1310,384L1526,279Z" fill="#f48b5e" stroke="#f48b5e" stroke-width="1.51"/><path d="M1334,-40L1491,-50L1497,-181Z" fill="#f79c79" stroke="#f79c79" stroke-width="1.51"/><path d="M1296,1185L1292,1264L1510,1269Z" fill="#c2321d" stroke="#c2321d" stroke-width="1.51"/><path d="M1491,-50L1334,-40L1495,47Z" fill="#f69972" stroke="#f69972" stroke-width="1.51"/><path d="M1333,560L1488,531L1506,434Z" fill="#f07046" stroke="#f07046" stroke-width="1.51"/><path d="M1310,384L1333,560L1506,434Z" fill="#f27a50" stroke="#f27a50" stroke-width="1.51"/><path d="M1464,805L1305,801L1465,977Z" fill="#e34b32" stroke="#e34b32" stroke-width="1.51"/><path d="M1307,700L1464,805L1466,657Z" fill="#ea5b3e" stroke="#ea5b3e" stroke-width="1.51"/><path d="M1465,977L1311,1026L1483,1098Z" fill="#d63823" stroke="#d63823" stroke-width="1.51"/><path d="M1333,560L1466,657L1488,531Z" fill="#ee6943" stroke="#ee6943" stroke-width="1.51"/><path d="M1285,-258L1334,-40L1497,-181Z" fill="#faa484" stroke="#faa484" stroke-width="1.51"/><path d="M1334,-40L1350,129L1495,47Z" fill="#f79970" stroke="#f79970" stroke-width="1.51"/><path d="M1305,801L1311,1026L1465,977Z" fill="#e0462f" stroke="#e0462f" stroke-width="1.51"/><path d="M1311,1026L1296,1185L1483,1098Z" fill="#d23922" stroke="#d23922" stroke-width="1.51"/><path d="M1307,700L1305,801L1464,805Z" fill="#ea5b3f" stroke="#ea5b3f" stroke-width="1.51"/><path d="M1333,560L1307,700L1466,657Z" fill="#ef6845" stroke="#ef6845" stroke-width="1.51"/><path d="M145,-207L286,-212L420,-232Z" fill="#ffe5c4" stroke="#ffe5c4" stroke-width="1.51"/><path d="M902,-195L1075,-171L1285,-258Z" fill="#ffb897" stroke="#ffb897" stroke-width="1.51"/><path d="M1234,792L1228,1025L1305,801Z" fill="#e8573b" stroke="#e8573b" stroke-width="1.51"/><path d="M1305,801L1228,1025L1311,1026Z" fill="#e24b32" stroke="#e24b32" stroke-width="1.51"/><path d="M1228,1025L1296,1185L1311,1026Z" fill="#d84229" stroke="#d84229" stroke-width="1.51"/><path d="M1200,565L1307,700L1333,560Z" fill="#f3714c" stroke="#f3714c" stroke-width="1.51"/><path d="M1310,384L1195,434L1333,560Z" fill="#f68257" stroke="#f68257" stroke-width="1.51"/><path d="M1195,434L1200,565L1333,560Z" fill="#f67d53" stroke="#f67d53" stroke-width="1.51"/><path d="M1140,-22L1170,102L1334,-40Z" fill="#fca77e" stroke="#fca77e" stroke-width="1.51"/><path d="M1285,-258L1220,-177L1334,-40Z" fill="#fdaa8b" stroke="#fdaa8b" stroke-width="1.51"/><path d="M1138,248L1310,384L1339,224Z" fill="#f89568" stroke="#f89568" stroke-width="1.51"/><path d="M1170,102L1339,224L1350,129Z" fill="#f89b6e" stroke="#f89b6e" stroke-width="1.51"/><path d="M1334,-40L1170,102L1350,129Z" fill="#faa076" stroke="#faa076" stroke-width="1.51"/><path d="M1170,102L1138,248L1339,224Z" fill="#fa9d6f" stroke="#fa9d6f" stroke-width="1.51"/><path d="M1228,1025L1198,1183L1296,1185Z" fill="#d44228" stroke="#d44228" stroke-width="1.51"/><path d="M1234,792L1305,801L1307,700Z" fill="#ed6245" stroke="#ed6245" stroke-width="1.51"/><path d="M1220,-177L1140,-22L1334,-40Z" fill="#fdaa87" stroke="#fdaa87" stroke-width="1.51"/><path d="M1200,565L1174,683L1307,700Z" fill="#f3714d" stroke="#f3714d" stroke-width="1.51"/><path d="M1138,248L1195,434L1310,384Z" fill="#f89264" stroke="#f89264" stroke-width="1.51"/><path d="M1198,1183L1292,1264L1296,1185Z" fill="#cb3d25" stroke="#cb3d25" stroke-width="1.51"/><path d="M1174,683L1234,792L1307,700Z" fill="#f06949" stroke="#f06949" stroke-width="1.51"/><path d="M1198,1183L1217,1288L1292,1264Z" fill="#c73d25" stroke="#c73d25" stroke-width="1.51"/><path d="M1075,-171L1220,-177L1285,-258Z" fill="#ffb192" stroke="#ffb192" stroke-width="1.51"/><path d="M1029,809L1228,1025L1234,792Z" fill="#ea5d3d" stroke="#ea5d3d" stroke-width="1.51"/><path d="M136,1321L-120,1340L235,1329Z" fill="#ca7d5e" stroke="#ca7d5e" stroke-width="1.51"/><path d="M877,1286L762,1323L1071,1318Z" fill="#c55530" stroke="#c55530" stroke-width="1.51"/><path d="M1075,-171L1140,-22L1220,-177Z" fill="#ffb18d" stroke="#ffb18d" stroke-width="1.51"/><path d="M989,1173L1198,1183L1228,1025Z" fill="#d74a2b" stroke="#d74a2b" stroke-width="1.51"/><path d="M1002,971L989,1173L1228,1025Z" fill="#df5431" stroke="#df5431" stroke-width="1.51"/><path d="M1029,809L1002,971L1228,1025Z" fill="#e95c3a" stroke="#e95c3a" stroke-width="1.51"/><path d="M1174,683L1029,809L1234,792Z" fill="#f16c49" stroke="#f16c49" stroke-width="1.51"/><path d="M1138,248L1050,439L1195,434Z" fill="#fa9565" stroke="#fa9565" stroke-width="1.51"/><path d="M427,1280L235,1329L762,1323Z" fill="#c87047" stroke="#c87047" stroke-width="1.51"/><path d="M1195,434L1060,550L1200,565Z" fill="#f88356" stroke="#f88356" stroke-width="1.51"/><path d="M1198,1183L1071,1318L1217,1288Z" fill="#c64327" stroke="#c64327" stroke-width="1.51"/><path d="M1050,439L1060,550L1195,434Z" fill="#fa8c5c" stroke="#fa8c5c" stroke-width="1.51"/><path d="M989,1173L1071,1318L1198,1183Z" fill="#cd4a29" stroke="#cd4a29" stroke-width="1.51"/><path d="M1060,550L1174,683L1200,565Z" fill="#f67c51" stroke="#f67c51" stroke-width="1.51"/><path d="M1029,207L1138,248L1170,102Z" fill="#fca473" stroke="#fca473" stroke-width="1.51"/><path d="M1012,-32L981,111L1140,-22Z" fill="#ffb183" stroke="#ffb183" stroke-width="1.51"/><path d="M1140,-22L981,111L1170,102Z" fill="#fdac7d" stroke="#fdac7d" stroke-width="1.51"/><path d="M1060,550L979,657L1174,683Z" fill="#f77e52" stroke="#f77e52" stroke-width="1.51"/><path d="M979,657L1029,809L1174,683Z" fill="#f5764e" stroke="#f5764e" stroke-width="1.51"/><path d="M981,111L1029,207L1170,102Z" fill="#fdaa77" stroke="#fdaa77" stroke-width="1.51"/><path d="M1029,207L1050,439L1138,248Z" fill="#fb9f6d" stroke="#fb9f6d" stroke-width="1.51"/><path d="M1075,-171L1012,-32L1140,-22Z" fill="#ffb48b" stroke="#ffb48b" stroke-width="1.51"/><path d="M932,1031L932,1139L989,1173Z" fill="#dd5930" stroke="#dd5930" stroke-width="1.51"/><path d="M932,1031L989,1173L1002,971Z" fill="#e15b33" stroke="#e15b33" stroke-width="1.51"/><path d="M1029,207L906,269L1050,439Z" fill="#fda46f" stroke="#fda46f" stroke-width="1.51"/><path d="M906,269L866,366L1050,439Z" fill="#fda36d" stroke="#fda36d" stroke-width="1.51"/><path d="M989,1173L877,1286L1071,1318Z" fill="#ca512c" stroke="#ca512c" stroke-width="1.51"/><path d="M902,-195L1012,-32L1075,-171Z" fill="#ffbb93" stroke="#ffbb93" stroke-width="1.51"/><path d="M1050,439L879,508L1060,550Z" fill="#fc8f5c" stroke="#fc8f5c" stroke-width="1.51"/><path d="M902,-195L924,-30L1012,-32Z" fill="#ffbc91" stroke="#ffbc91" stroke-width="1.51"/><path d="M879,508L979,657L1060,550Z" fill="#fb8957" stroke="#fb8957" stroke-width="1.51"/><path d="M861,802L1002,971L1029,809Z" fill="#f06d45" stroke="#f06d45" stroke-width="1.51"/><path d="M866,366L879,508L1050,439Z" fill="#fd9b65" stroke="#fd9b65" stroke-width="1.51"/><path d="M924,-30L981,111L1012,-32Z" fill="#ffb686" stroke="#ffb686" stroke-width="1.51"/><path d="M979,657L861,802L1029,809Z" fill="#f57950" stroke="#f57950" stroke-width="1.51"/><path d="M981,111L906,269L1029,207Z" fill="#feac76" stroke="#feac76" stroke-width="1.51"/><path d="M861,802L932,1031L1002,971Z" fill="#ec673f" stroke="#ec673f" stroke-width="1.51"/><path d="M834,674L861,802L979,657Z" fill="#f78357" stroke="#f78357" stroke-width="1.51"/><path d="M848,118L906,269L981,111Z" fill="#feb27c" stroke="#feb27c" stroke-width="1.51"/><path d="M932,1139L877,1286L989,1173Z" fill="#d3562f" stroke="#d3562f" stroke-width="1.51"/><path d="M879,508L834,674L979,657Z" fill="#fb8b5a" stroke="#fb8b5a" stroke-width="1.51"/><path d="M924,-30L848,118L981,111Z" fill="#ffb784" stroke="#ffb784" stroke-width="1.51"/><path d="M861,802L760,1004L932,1031Z" fill="#ec6d43" stroke="#ec6d43" stroke-width="1.51"/><path d="M848,118L761,212L906,269Z" fill="#feb67f" stroke="#feb67f" stroke-width="1.51"/><path d="M902,-195L764,-25L924,-30Z" fill="#ffc297" stroke="#ffc297" stroke-width="1.51"/><path d="M764,-25L848,118L924,-30Z" fill="#ffbf8e" stroke="#ffbf8e" stroke-width="1.51"/><path d="M702,1129L877,1286L932,1139Z" fill="#d75f35" stroke="#d75f35" stroke-width="1.51"/><path d="M760,1004L702,1129L932,1139Z" fill="#e1683d" stroke="#e1683d" stroke-width="1.51"/><path d="M760,1004L932,1139L932,1031Z" fill="#e3633a" stroke="#e3633a" stroke-width="1.51"/><path d="M727,-192L764,-25L902,-195Z" fill="#ffc9a0" stroke="#ffc9a0" stroke-width="1.51"/><path d="M694,873L760,1004L861,802Z" fill="#ef794e" stroke="#ef794e" stroke-width="1.51"/><path d="M702,1129L762,1323L877,1286Z" fill="#cf6239" stroke="#cf6239" stroke-width="1.51"/><path d="M732,575L834,674L879,508Z" fill="#fb9461" stroke="#fb9461" stroke-width="1.51"/><path d="M761,212L866,366L906,269Z" fill="#fdb079" stroke="#fdb079" stroke-width="1.51"/><path d="M764,-25L719,48L848,118Z" fill="#ffc390" stroke="#ffc390" stroke-width="1.51"/><path d="M834,674L717,711L861,802Z" fill="#f7885c" stroke="#f7885c" stroke-width="1.51"/><path d="M761,212L720,358L866,366Z" fill="#fdb47c" stroke="#fdb47c" stroke-width="1.51"/><path d="M866,366L720,358L879,508Z" fill="#fda770" stroke="#fda770" stroke-width="1.51"/><path d="M720,358L732,575L879,508Z" fill="#fda26c" stroke="#fda26c" stroke-width="1.51"/><path d="M717,711L694,873L861,802Z" fill="#f58559" stroke="#f58559" stroke-width="1.51"/><path d="M719,48L761,212L848,118Z" fill="#febf88" stroke="#febf88" stroke-width="1.51"/><path d="M732,575L717,711L834,674Z" fill="#fa9362" stroke="#fa9362" stroke-width="1.51"/><path d="M720,358L568,396L732,575Z" fill="#fdae77" stroke="#fdae77" stroke-width="1.51"/><path d="M568,396L555,557L732,575Z" fill="#fea973" stroke="#fea973" stroke-width="1.51"/><path d="M694,873L584,945L760,1004Z" fill="#ee7c50" stroke="#ee7c50" stroke-width="1.51"/><path d="M719,48L606,122L761,212Z" fill="#fdc58e" stroke="#fdc58e" stroke-width="1.51"/><path d="M547,293L720,358L761,212Z" fill="#fdbd86" stroke="#fdbd86" stroke-width="1.51"/><path d="M557,1238L427,1280L762,1323Z" fill="#cc6d43" stroke="#cc6d43" stroke-width="1.51"/><path d="M702,1129L609,1161L762,1323Z" fill="#d56a3f" stroke="#d56a3f" stroke-width="1.51"/><path d="M609,1161L557,1238L762,1323Z" fill="#d16c41" stroke="#d16c41" stroke-width="1.51"/><path d="M727,-192L574,-110L764,-25Z" fill="#ffd0a6" stroke="#ffd0a6" stroke-width="1.51"/><path d="M574,-110L719,48L764,-25Z" fill="#ffcd9f" stroke="#ffcd9f" stroke-width="1.51"/><path d="M626,-202L574,-110L727,-192Z" fill="#ffd5af" stroke="#ffd5af" stroke-width="1.51"/><path d="M584,945L702,1129L760,1004Z" fill="#e77649" stroke="#e77649" stroke-width="1.51"/><path d="M606,122L547,293L761,212Z" fill="#fdc48d" stroke="#fdc48d" stroke-width="1.51"/><path d="M604,670L717,711L732,575Z" fill="#fa9868" stroke="#fa9868" stroke-width="1.51"/><path d="M584,945L609,1161L702,1129Z" fill="#e37548" stroke="#e37548" stroke-width="1.51"/><path d="M572,805L694,873L717,711Z" fill="#f58c60" stroke="#f58c60" stroke-width="1.51"/><path d="M555,557L604,670L732,575Z" fill="#fca06d" stroke="#fca06d" stroke-width="1.51"/><path d="M574,-110L606,122L719,48Z" fill="#fecd9d" stroke="#fecd9d" stroke-width="1.51"/><path d="M604,670L572,805L717,711Z" fill="#f89467" stroke="#f89467" stroke-width="1.51"/><path d="M547,293L568,396L720,358Z" fill="#fdbc84" stroke="#fdbc84" stroke-width="1.51"/><path d="M572,805L584,945L694,873Z" fill="#f2865a" stroke="#f2865a" stroke-width="1.51"/><path d="M483,-85L448,44L574,-110Z" fill="#fed6aa" stroke="#fed6aa" stroke-width="1.51"/><path d="M411,972L403,1101L584,945Z" fill="#eb8154" stroke="#eb8154" stroke-width="1.51"/><path d="M574,-110L448,44L606,122Z" fill="#fed2a1" stroke="#fed2a1" stroke-width="1.51"/><path d="M584,945L403,1101L609,1161Z" fill="#e57b4d" stroke="#e57b4d" stroke-width="1.51"/><path d="M420,-232L574,-110L626,-202Z" fill="#ffdab4" stroke="#ffdab4" stroke-width="1.51"/><path d="M445,440L555,557L568,396Z" fill="#feb27c" stroke="#feb27c" stroke-width="1.51"/><path d="M572,805L467,831L584,945Z" fill="#f38b5e" stroke="#f38b5e" stroke-width="1.51"/><path d="M455,649L572,805L604,670Z" fill="#fa9a6c" stroke="#fa9a6c" stroke-width="1.51"/><path d="M555,557L455,649L604,670Z" fill="#fca270" stroke="#fca270" stroke-width="1.51"/><path d="M391,261L547,293L606,122Z" fill="#fdc891" stroke="#fdc891" stroke-width="1.51"/><path d="M448,44L391,261L606,122Z" fill="#fdce97" stroke="#fdce97" stroke-width="1.51"/><path d="M403,1101L557,1238L609,1161Z" fill="#dc7447" stroke="#dc7447" stroke-width="1.51"/><path d="M420,-232L483,-85L574,-110Z" fill="#ffdbb2" stroke="#ffdbb2" stroke-width="1.51"/><path d="M455,649L467,831L572,805Z" fill="#f8986a" stroke="#f8986a" stroke-width="1.51"/><path d="M467,831L411,972L584,945Z" fill="#f0875b" stroke="#f0875b" stroke-width="1.51"/><path d="M547,293L445,440L568,396Z" fill="#fdbd85" stroke="#fdbd85" stroke-width="1.51"/><path d="M403,1101L427,1280L557,1238Z" fill="#d77549" stroke="#d77549" stroke-width="1.51"/><path d="M391,261L445,440L547,293Z" fill="#fdc48c" stroke="#fdc48c" stroke-width="1.51"/><path d="M445,440L401,494L555,557Z" fill="#feb17b" stroke="#feb17b" stroke-width="1.51"/><path d="M401,494L455,649L555,557Z" fill="#fdaa75" stroke="#fdaa75" stroke-width="1.51"/><path d="M391,261L328,409L445,440Z" fill="#fdc38c" stroke="#fdc38c" stroke-width="1.51"/><path d="M336,64L391,261L448,44Z" fill="#fdd29d" stroke="#fdd29d" stroke-width="1.51"/><path d="M455,649L297,688L467,831Z" fill="#fa9f71" stroke="#fa9f71" stroke-width="1.51"/><path d="M420,-232L286,-212L483,-85Z" fill="#ffe0ba" stroke="#ffe0ba" stroke-width="1.51"/><path d="M286,-212L305,-10L483,-85Z" fill="#fedfb5" stroke="#fedfb5" stroke-width="1.51"/><path d="M305,-10L448,44L483,-85Z" fill="#fed9aa" stroke="#fed9aa" stroke-width="1.51"/><path d="M401,494L297,688L455,649Z" fill="#fdaa77" stroke="#fdaa77" stroke-width="1.51"/><path d="M229,857L411,972L467,831Z" fill="#f39062" stroke="#f39062" stroke-width="1.51"/><path d="M297,688L229,857L467,831Z" fill="#f89b6f" stroke="#f89b6f" stroke-width="1.51"/><path d="M336,64L332,264L391,261Z" fill="#fdd09a" stroke="#fdd09a" stroke-width="1.51"/><path d="M403,1101L264,1150L427,1280Z" fill="#dc7b4d" stroke="#dc7b4d" stroke-width="1.51"/><path d="M305,-10L336,64L448,44Z" fill="#fed8a7" stroke="#fed8a7" stroke-width="1.51"/><path d="M332,264L328,409L391,261Z" fill="#fdca93" stroke="#fdca93" stroke-width="1.51"/><path d="M328,409L401,494L445,440Z" fill="#feba83" stroke="#feba83" stroke-width="1.51"/><path d="M262,492L297,688L401,494Z" fill="#feb17d" stroke="#feb17d" stroke-width="1.51"/><path d="M229,857L230,944L411,972Z" fill="#f28f64" stroke="#f28f64" stroke-width="1.51"/><path d="M264,1150L235,1329L427,1280Z" fill="#d27950" stroke="#d27950" stroke-width="1.51"/><path d="M230,944L264,1150L403,1101Z" fill="#e78458" stroke="#e78458" stroke-width="1.51"/><path d="M230,944L403,1101L411,972Z" fill="#ec8759" stroke="#ec8759" stroke-width="1.51"/><path d="M328,409L262,492L401,494Z" fill="#feba85" stroke="#feba85" stroke-width="1.51"/><path d="M145,-207L148,-16L286,-212Z" fill="#ffe6c4" stroke="#ffe6c4" stroke-width="1.51"/><path d="M262,492L139,592L297,688Z" fill="#ffb182" stroke="#ffb182" stroke-width="1.51"/><path d="M190,740L229,857L297,688Z" fill="#faa178" stroke="#faa178" stroke-width="1.51"/><path d="M286,-212L148,-16L305,-10Z" fill="#fee2bb" stroke="#fee2bb" stroke-width="1.51"/><path d="M179,247L185,435L328,409Z" fill="#fec997" stroke="#fec997" stroke-width="1.51"/><path d="M179,247L328,409L332,264Z" fill="#fecc98" stroke="#fecc98" stroke-width="1.51"/><path d="M305,-10L148,-16L336,64Z" fill="#fedcb0" stroke="#fedcb0" stroke-width="1.51"/><path d="M148,-16L126,138L336,64Z" fill="#fedcaf" stroke="#fedcaf" stroke-width="1.51"/><path d="M179,247L332,264L336,64Z" fill="#fed29f" stroke="#fed29f" stroke-width="1.51"/><path d="M126,138L179,247L336,64Z" fill="#fed7a6" stroke="#fed7a6" stroke-width="1.51"/><path d="M185,435L262,492L328,409Z" fill="#ffbf8c" stroke="#ffbf8c" stroke-width="1.51"/><path d="M147,951L105,1110L230,944Z" fill="#ee8d66" stroke="#ee8d66" stroke-width="1.51"/><path d="M230,944L105,1110L264,1150Z" fill="#e8875e" stroke="#e8875e" stroke-width="1.51"/><path d="M139,592L190,740L297,688Z" fill="#fdaa7f" stroke="#fdaa7f" stroke-width="1.51"/><path d="M136,1321L235,1329L264,1150Z" fill="#d17c56" stroke="#d17c56" stroke-width="1.51"/><path d="M-196,-223L11,-162L145,-207Z" fill="#ffeed7" stroke="#ffeed7" stroke-width="1.51"/><path d="M185,435L139,592L262,492Z" fill="#ffba8a" stroke="#ffba8a" stroke-width="1.51"/><path d="M105,1110L136,1321L264,1150Z" fill="#dc815a" stroke="#dc815a" stroke-width="1.51"/><path d="M105,1110L36,1254L136,1321Z" fill="#d8825e" stroke="#d8825e" stroke-width="1.51"/><path d="M190,740L121,887L229,857Z" fill="#f89c75" stroke="#f89c75" stroke-width="1.51"/><path d="M121,887L147,951L229,857Z" fill="#f5966f" stroke="#f5966f" stroke-width="1.51"/><path d="M229,857L147,951L230,944Z" fill="#f3926a" stroke="#f3926a" stroke-width="1.51"/><path d="M179,247L14,387L185,435Z" fill="#ffcd9f" stroke="#ffcd9f" stroke-width="1.51"/><path d="M145,-207L11,-162L148,-16Z" fill="#fee8c9" stroke="#fee8c9" stroke-width="1.51"/><path d="M-13,272L14,387L179,247Z" fill="#ffd3a8" stroke="#ffd3a8" stroke-width="1.51"/><path d="M39,505L139,592L185,435Z" fill="#ffbc8e" stroke="#ffbc8e" stroke-width="1.51"/><path d="M13,867L121,887L190,740Z" fill="#f89e79" stroke="#f89e79" stroke-width="1.51"/><path d="M-25,715L13,867L190,740Z" fill="#fba683" stroke="#fba683" stroke-width="1.51"/><path d="M139,592L-25,715L190,740Z" fill="#fdad86" stroke="#fdad86" stroke-width="1.51"/><path d="M34,102L126,138L148,-16Z" fill="#fedfb5" stroke="#fedfb5" stroke-width="1.51"/><path d="M14,387L39,505L185,435Z" fill="#ffc598" stroke="#ffc598" stroke-width="1.51"/><path d="M126,138L-13,272L179,247Z" fill="#fed7aa" stroke="#fed7aa" stroke-width="1.51"/><path d="M-33,1029L35,1114L105,1110Z" fill="#e98b68" stroke="#e98b68" stroke-width="1.51"/><path d="M35,1114L36,1254L105,1110Z" fill="#e28661" stroke="#e28661" stroke-width="1.51"/><path d="M36,1254L-120,1340L136,1321Z" fill="#ce8062" stroke="#ce8062" stroke-width="1.51"/><path d="M-33,1029L105,1110L147,951Z" fill="#ed8e69" stroke="#ed8e69" stroke-width="1.51"/><path d="M-43,-67L34,102L148,-16Z" fill="#fee4c0" stroke="#fee4c0" stroke-width="1.51"/><path d="M11,-162L-43,-67L148,-16Z" fill="#fee8ca" stroke="#fee8ca" stroke-width="1.51"/><path d="M121,887L13,867L147,951Z" fill="#f59873" stroke="#f59873" stroke-width="1.51"/><path d="M13,867L-33,1029L147,951Z" fill="#f49471" stroke="#f49471" stroke-width="1.51"/><path d="M34,102L-13,272L126,138Z" fill="#fedcb1" stroke="#fedcb1" stroke-width="1.51"/><path d="M39,505L-25,715L139,592Z" fill="#ffb58d" stroke="#ffb58d" stroke-width="1.51"/><path d="M-43,-67L-121,-8L34,102Z" fill="#ffe6c5" stroke="#ffe6c5" stroke-width="1.51"/><path d="M-135,217L-13,272L34,102Z" fill="#ffdcb4" stroke="#ffdcb4" stroke-width="1.51"/><path d="M35,1114L-144,1108L36,1254Z" fill="#e48866" stroke="#e48866" stroke-width="1.51"/><path d="M-144,1108L-120,1340L36,1254Z" fill="#da8668" stroke="#da8668" stroke-width="1.51"/><path d="M-177,532L-25,715L39,505Z" fill="#ffba94" stroke="#ffba94" stroke-width="1.51"/><path d="M-124,436L-177,532L39,505Z" fill="#ffc49d" stroke="#ffc49d" stroke-width="1.51"/><path d="M14,387L-124,436L39,505Z" fill="#ffc89f" stroke="#ffc89f" stroke-width="1.51"/><path d="M-25,715L-153,839L13,867Z" fill="#fba586" stroke="#fba586" stroke-width="1.51"/><path d="M-33,1029L-144,1108L35,1114Z" fill="#ea8d6c" stroke="#ea8d6c" stroke-width="1.51"/><path d="M-121,-8L-135,217L34,102Z" fill="#ffe2bd" stroke="#ffe2bd" stroke-width="1.51"/><path d="M-153,839L-198,947L-33,1029Z" fill="#f7997c" stroke="#f7997c" stroke-width="1.51"/><path d="M-177,532L-188,694L-25,715Z" fill="#ffb696" stroke="#ffb696" stroke-width="1.51"/><path d="M-153,839L-33,1029L13,867Z" fill="#f79a7b" stroke="#f79a7b" stroke-width="1.51"/><path d="M-13,272L-124,436L14,387Z" fill="#ffd0a8" stroke="#ffd0a8" stroke-width="1.51"/><path d="M-196,-223L-43,-67L11,-162Z" fill="#ffeed6" stroke="#ffeed6" stroke-width="1.51"/><path d="M-219,50L-135,217L-121,-8Z" fill="#ffe5c4" stroke="#ffe5c4" stroke-width="1.51"/><path d="M-135,217L-124,436L-13,272Z" fill="#ffd7b0" stroke="#ffd7b0" stroke-width="1.51"/><path d="M-188,694L-153,839L-25,715Z" fill="#fead90" stroke="#fead90" stroke-width="1.51"/><path d="M-196,-223L-121,-8L-43,-67Z" fill="#ffedd5" stroke="#ffedd5" stroke-width="1.51"/><path d="M-198,947L-144,1108L-33,1029Z" fill="#f09375" stroke="#f09375" stroke-width="1.51"/><path d="M-135,217L-177,532L-124,436Z" fill="#ffd0ab" stroke="#ffd0ab" stroke-width="1.51"/><path d="M-196,-223L-219,50L-121,-8Z" fill="#ffedd4" stroke="#ffedd4" stroke-width="1.51"/><path d="M-144,1108L-198,947L-120,1340Z" fill="#e88d6f" stroke="#e88d6f" stroke-width="1.51"/><path d="M-219,50L-177,532L-135,217Z" fill="#ffdbb8" stroke="#ffdbb8" stroke-width="1.51"/><path d="M-188,694L-198,947L-153,839Z" fill="#fca68b" stroke="#fca68b" stroke-width="1.51"/><path d="M-219,50L-188,694L-177,532Z" fill="#ffceab" stroke="#ffceab" stroke-width="1.51"/><path d="M-219,50L-198,947L-188,694Z" fill="#ffbf9d" stroke="#ffbf9d" stroke-width="1.51"/></svg>